<?xml version="1.0" standalone="no"?>
<!DOCTYPE svg PUBLIC "-//W3C//DTD SVG 20010904//EN"
 "http://www.w3.org/TR/2001/REC-SVG-20010904/DTD/svg10.dtd">
<svg version="1.0" xmlns="http://www.w3.org/2000/svg"
 width="601.000000pt" height="601.000000pt" viewBox="0 0 601.000000 601.000000"
 preserveAspectRatio="xMidYMid meet">
<metadata>
Created by potrace 1.14, written by Peter Selinger 2001-2017
</metadata>
<g transform="translate(0.000000,601.000000) scale(0.100000,-0.100000)"
fill="#000000" stroke="none">
<path d="M1021 4034 l-1023 -1024 1025 -1025 1025 -1025 477 476 477 477 476
-476 477 -477 1025 1025 1025 1025 -1025 1025 -1025 1025 -477 -477 -476 -476
-455 454 c-250 250 -465 464 -478 476 l-24 21 -1024 -1024z m1359 -549 l-475
-475 475 -475 475 -475 -405 -404 -405 -404 -878 879 -879 879 879 879 878
879 405 -404 405 -404 -475 -475z m2893 -37 l439 -438 -879 -879 -880 -880
-403 404 -403 403 476 476 476 476 -476 476 -476 476 403 403 403 404 441
-441 c243 -243 638 -638 879 -880z m-1868 -38 l400 -400 -403 -403 -402 -402
-402 402 -403 403 400 400 c220 220 402 400 405 400 3 0 185 -180 405 -400z"/>
</g>
</svg>
